<?xml version="1.0" encoding="utf-8"?>
<!-- Generator: Adobe Illustrator 22.0.1, SVG Export Plug-In . SVG Version: 6.00 Build 0)  -->
<svg version="1.1" id="Layer_1" xmlns="http://www.w3.org/2000/svg" xmlns:xlink="http://www.w3.org/1999/xlink" x="0px" y="0px"
	 viewBox="0 0 155.4 155.4" style="enable-background:new 0 0 155.4 155.4;" xml:space="preserve">
<style type="text/css">
	.st0{fill:#20262E;}
	.st1{fill:#FFFFFF;}
	.st2{fill:#F4F4F4;}
	.st3{fill:#2384F5;}
	.st4{fill:#4F9DF7;}
	.st5{fill:#7BB5F9;}
	.st6{fill:#15DEB8;}
	.st7{fill:#FB464B;}
	.st8{fill:#FDCE50;}
	.st9{fill:url(#SVGID_1_);}
	.st10{fill:#914AF1;}
	.st11{fill:url(#SVGID_2_);}
	.st12{fill:#2A46F7;}
	.st13{fill:url(#SVGID_3_);}
	.st14{fill:url(#SVGID_4_);}
	.st15{fill:none;stroke:#20262E;stroke-width:2;stroke-linecap:round;stroke-linejoin:round;stroke-miterlimit:10;}
	.st16{fill:#FFFFFF;stroke:#20262E;stroke-width:3;stroke-linecap:round;stroke-linejoin:round;stroke-miterlimit:10;}
	.st17{fill:none;stroke:#20262E;stroke-width:3.565;stroke-miterlimit:10;}
	.st18{fill:#FFFFFF;stroke:#20262E;stroke-width:2.3344;stroke-linecap:round;stroke-linejoin:round;stroke-miterlimit:10;}
	.st19{fill:#FFFFFF;stroke:#20262E;stroke-width:2;stroke-linecap:round;stroke-linejoin:round;stroke-miterlimit:10;}
	.st20{fill:none;}
</style>
<circle class="st0" cx="77.7" cy="77.7" r="76.7"/>
<path class="st20" d="M106.1,69.9C99.6,62.8,89.2,54,77.7,54c-11.5,0-21.9,8.8-28.4,15.9c6.9-4.3,17-8.9,28.4-8.9
	C89.1,61,99.2,65.7,106.1,69.9z"/>
<path class="st20" d="M82,16.4c0.4-0.4,0.6-1,0.6-1.7c0-0.8-0.2-1.3-0.6-1.7c-0.5-0.3-1.2-0.5-2.1-0.6l-1.7-0.1L78,16.9l2,0.1
	C81,17,81.6,16.8,82,16.4z"/>
<path class="st20" d="M97.4,132.1c-0.1-0.3-0.3-0.6-0.6-0.7c-0.3-0.1-0.6-0.1-0.8,0c-0.3,0.1-0.5,0.3-0.6,0.5
	c-0.1,0.3-0.2,0.5,0,0.9c0.1,0.3,0.5,0.7,1.2,1.1C97.3,133.2,97.6,132.6,97.4,132.1z"/>
<path class="st20" d="M96,139.5c0.1,0.4,0.4,0.7,0.9,0.9c0.4,0.2,0.9,0.1,1.5-0.1c0.6-0.2,1.1-0.7,1.5-1.4c-1.2-0.6-2.3-1.2-3.2-1.7
	C96,138.1,95.8,138.9,96,139.5z"/>
<path class="st20" d="M23,99.5c0.4-0.9,0.4-2.1-0.1-3.5l-0.5-1.6l-7.6,2.7l0.6,1.8c0.5,1.3,1.1,2.2,2,2.6c0.9,0.5,2,0.5,3.2,0
	C21.8,101.1,22.6,100.4,23,99.5z"/>
<path class="st20" d="M47.7,28.9c0.7-0.4,1.2-0.9,1.5-1.3c0.3-0.4,0.2-0.9-0.1-1.4c-0.3-0.5-0.7-0.8-1.2-0.7c-0.5,0.1-1.2,0.4-2,0.9
	l-1.5,0.9L46,30L47.7,28.9z"/>
<path class="st20" d="M45.8,23.5c0.3-0.4,0.2-0.8-0.1-1.3c-0.3-0.5-0.7-0.7-1.1-0.7c-0.4,0-1,0.3-1.7,0.7l-1.2,0.7l1.5,2.5l1.2-0.7
	C45.1,24.2,45.6,23.8,45.8,23.5z"/>
<path class="st20" d="M15.7,60.2c-0.6-0.1-1-0.1-1.3,0.2c-0.3,0.3-0.5,0.9-0.7,1.7l-0.4,1.4l2.8,0.7l0.4-1.4
	c0.2-0.8,0.3-1.4,0.2-1.8C16.6,60.7,16.3,60.4,15.7,60.2z"/>
<path class="st20" d="M140,58.6l-3.8,1l0.6,2.1c0.3,1,0.6,1.6,1,1.9c0.4,0.3,1,0.3,1.7,0.1c0.7-0.2,1.1-0.5,1.3-0.9
	c0.2-0.4,0.1-1.1-0.1-2L140,58.6z"/>
<path class="st20" d="M21,60.8c-0.6-0.2-1,0-1.4,0.4c-0.3,0.4-0.6,1.1-0.8,2l-0.4,1.7l3,0.8l0.5-2c0.2-0.8,0.3-1.5,0.2-1.9
	C22,61.3,21.6,61,21,60.8z"/>
<path class="st20" d="M117,120.9c-1-0.1-2.1,0.4-3.2,1.4l-1.3,1.1l5.3,6.2l1.4-1.2c1-0.9,1.6-1.8,1.7-2.8c0.1-1-0.3-2-1.1-3
	C118.9,121.5,118,120.9,117,120.9z"/>
<path class="st20" d="M95.2,23.6c1.1,0.3,2.1,0.2,3.1-0.3c1-0.6,1.7-1.4,2-2.5c0.4-1.1,0.3-2.2-0.1-3.2c-0.5-1-1.2-1.7-2.3-2.1
	c-1.1-0.3-2.1-0.2-3.1,0.3c-1,0.6-1.7,1.4-2,2.5c-0.4,1.1-0.3,2.2,0.1,3.2C93.4,22.6,94.1,23.3,95.2,23.6z"/>
<path class="st20" d="M65,77.9c0,6.5,5.3,11.8,11.8,11.8s11.8-5.3,11.8-11.8s-5.3-11.8-11.8-11.8S65,71.5,65,77.9z"/>
<path class="st20" d="M59.8,91.1c5.3,2.9,11.4,5.1,17.9,5.1c6.5,0,12.7-2.2,17.9-5.1c0.7-0.4,1.3-0.7,1.9-1.1
	c0.9-0.5,1.8-1.1,2.6-1.7c0.7-0.4,1.3-0.9,1.9-1.4c1.2-0.8,2.2-1.7,3.2-2.5c0.7-0.6,1.3-1.1,1.9-1.7c1.7-1.5,3.1-2.8,4-3.9
	c0.3-0.3,0.6-0.6,0.8-0.9c-0.4-0.3-0.8-0.7-1.4-1.1c-1.3-1-2.9-2.2-5-3.6c-0.8-0.5-1.6-1-2.5-1.5c-4.7-2.8-10.9-5.7-17.7-7
	c4.4,2.7,7.4,7.5,7.4,13.1c0,8.4-6.9,15.3-15.3,15.3s-15.3-6.9-15.3-15.3c0-5.6,3-10.4,7.4-13.1c-6.8,1.3-13,4.2-17.7,7
	c-0.9,0.5-1.7,1-2.5,1.5c-2.1,1.3-3.7,2.6-5,3.6c-0.6,0.4-1,0.8-1.4,1.1c0.2,0.3,0.5,0.5,0.8,0.9c1,1,2.4,2.4,4,3.9
	c0.6,0.5,1.3,1.1,1.9,1.7c1,0.8,2.1,1.7,3.2,2.5c0.6,0.5,1.3,0.9,1.9,1.4c0.8,0.6,1.7,1.1,2.6,1.7C58.5,90.4,59.1,90.8,59.8,91.1z"
	/>
<g>
	<path class="st1" d="M25.5,63.3c0.5-1.8,0.4-3.1-0.2-4c-0.5-0.8-1.2-1.3-2.1-1.5c-0.8-0.2-1.6-0.1-2.2,0.2
		c-0.7,0.3-1.2,0.9-1.6,1.6c0-0.2-0.1-0.4-0.1-0.5c0-0.1-0.1-0.3-0.2-0.5c-0.3-0.8-1-1.3-2-1.6c-0.8-0.2-1.7-0.1-2.5,0.3
		c-0.4,0.2-0.8,0.6-1.2,1.2c-0.4,0.6-0.7,1.3-0.9,2.2l-1.3,5L24,69L25.5,63.3z M17.4,62.7l-0.4,1.4l-2.8-0.7l0.4-1.4
		c0.2-0.8,0.5-1.4,0.7-1.7c0.3-0.3,0.7-0.4,1.3-0.2c0.6,0.1,0.9,0.4,1,0.9C17.7,61.3,17.6,61.9,17.4,62.7z M22.8,63.5l-0.5,2l-3-0.8
		l0.4-1.7c0.2-1,0.5-1.6,0.8-2c0.3-0.4,0.8-0.5,1.4-0.4c0.6,0.2,0.9,0.5,1,0.9C23.1,62,23,62.7,22.8,63.5z"/>
	<path class="st1" d="M27.4,53.5c1.4-0.4,2.6-1.4,3.4-2.8c0.8-1.4,1-2.9,0.7-4.3c-0.4-1.4-1.4-2.6-3.1-3.6l-6.5-3.7l-1.5,2.6
		l6.4,3.6c0.9,0.5,1.5,1.2,1.8,1.9c0.3,0.7,0.2,1.5-0.2,2.2c-0.4,0.7-1,1.2-1.8,1.3c-0.8,0.1-1.6-0.1-2.6-0.6l-6.4-3.6L16.3,49
		l6.5,3.7C24.4,53.7,26,53.9,27.4,53.5z"/>
	<path class="st1" d="M31.7,37.2c0.9-0.1,2.1-0.6,3.4-1.4c0.9-0.5,1.5-0.8,1.9-0.9c0.4-0.1,0.7,0,1,0.3c0.3,0.3,0.4,0.6,0.4,1
		c0,0.4-0.3,0.8-0.6,1.2c-0.9,0.9-2.2,1.4-4.1,1.5l0.3,2.8c2.3-0.1,4.2-0.9,5.7-2.4c1-1,1.6-2.1,1.7-3.3c0.1-1.2-0.3-2.2-1.1-3
		c-0.9-0.8-1.7-1.2-2.7-1.2c-0.9,0.1-2,0.4-3.1,1.1c-1.1,0.7-1.9,1.1-2.3,1.2c-0.4,0.1-0.8,0-1-0.3c-0.3-0.3-0.4-0.6-0.4-1
		s0.2-0.7,0.6-1.1c0.9-0.9,2-1.4,3.4-1.6l-0.5-2.6c-0.9,0.1-1.7,0.3-2.6,0.8c-0.8,0.4-1.6,0.9-2.2,1.6c-1,1-1.5,2-1.6,3.2
		c-0.1,1.1,0.2,2.1,1.1,3C29.8,36.9,30.7,37.3,31.7,37.2z"/>
	<path class="st1" d="M50.7,30.4c1.6-0.9,2.5-2,2.7-3.1c0.2-0.9,0-1.8-0.5-2.6c-0.4-0.7-1-1.2-1.7-1.4c-0.7-0.2-1.5-0.2-2.3,0.1
		c0.1-0.2,0.2-0.3,0.3-0.4c0.1-0.1,0.1-0.3,0.2-0.5c0.3-0.8,0.2-1.6-0.3-2.5c-0.4-0.7-1.1-1.2-2-1.5c-0.5-0.1-1-0.1-1.7,0
		c-0.7,0.2-1.4,0.5-2.2,0.9l-4.4,2.7l6.9,11.4L50.7,30.4z M44.1,25.1l-1.5-2.5l1.2-0.7c0.8-0.5,1.3-0.7,1.7-0.7
		c0.4,0,0.8,0.2,1.1,0.7c0.3,0.5,0.3,0.9,0.1,1.3c-0.3,0.4-0.7,0.8-1.4,1.2L44.1,25.1z M46.8,26.2c0.8-0.5,1.5-0.8,2-0.9
		c0.5-0.1,0.9,0.2,1.2,0.7c0.3,0.5,0.4,1,0.1,1.4c-0.3,0.4-0.7,0.8-1.5,1.3l-1.7,1.1l-1.6-2.6L46.8,26.2z"/>
	<polygon class="st1" points="60.4,26 63.3,25.1 61.7,20 63.7,11 60.6,11.9 59.3,17.5 55.1,13.7 52,14.6 58.8,20.9 	"/>
	<path class="st1" d="M78.8,19.2l1.8,0.1c2,0.1,3.4-0.2,4.4-1c1-0.7,1.5-1.9,1.6-3.6c0.1-1.6-0.3-2.9-1.2-3.7S83,9.8,80.9,9.7
		l-4.7-0.2l-0.5,13.3l3,0.1L78.8,19.2z M79.1,12.2l1.7,0.1c1,0,1.7,0.2,2.1,0.6c0.5,0.3,0.7,0.9,0.6,1.7c0,0.8-0.2,1.3-0.6,1.7
		c-0.4,0.4-1.1,0.6-2,0.5l-2-0.1L79.1,12.2z"/>
	<path class="st1" d="M95.3,25.8c1.9,0.6,3.7,0.5,5.3-0.3c1.7-0.8,2.8-2.2,3.5-4c0.6-1.9,0.5-3.6-0.4-5.3c-0.9-1.7-2.2-2.8-4.1-3.4
		c-1.9-0.6-3.7-0.5-5.3,0.3s-2.8,2.2-3.5,4c-0.6,1.9-0.5,3.6,0.4,5.3C92,24.1,93.4,25.2,95.3,25.8z M93.7,18.1c0.4-1.1,1.1-2,2-2.5
		c1-0.6,2-0.7,3.1-0.3c1.1,0.3,1.8,1,2.3,2.1c0.5,1,0.5,2.1,0.1,3.2c-0.4,1.1-1,2-2,2.5c-1,0.6-2,0.7-3.1,0.3
		c-1.1-0.3-1.8-1-2.3-2.1C93.4,20.3,93.3,19.2,93.7,18.1z"/>
	<polygon class="st1" points="109.4,32.7 115.3,23.7 118.4,25.7 119.8,23.6 111,17.8 109.6,20 112.8,22 106.9,31.1 	"/>
	<polygon class="st1" points="116.9,38.9 118.9,41.1 126.7,33.6 129.3,36.4 131.2,34.6 123.9,27 122.1,28.7 124.7,31.5 	"/>
	<polygon class="st1" points="128.3,55 130.6,53.7 127.2,47.7 129.6,46.4 132.6,51.5 134.8,50.3 131.8,45.1 134.2,43.7 137.5,49.5 
		139.8,48.2 135,39.8 123.4,46.5 	"/>
	<path class="st1" d="M143.9,59.8l-1.3-4.9l-12.9,3.5l0.8,2.9l4.1-1.1l0.5,2l-3.3,4l1,3.5l3.7-4.5c1,1.5,2.6,1.9,4.7,1.4
		c1.5-0.4,2.5-1.1,2.9-2.2C144.5,63.3,144.4,61.8,143.9,59.8z M141.6,62.6c-0.2,0.4-0.6,0.8-1.3,0.9c-0.7,0.2-1.2,0.1-1.7-0.1
		c-0.4-0.3-0.8-0.9-1-1.9l-0.6-2.1l3.8-1l0.6,2.2C141.7,61.5,141.8,62.2,141.6,62.6z"/>
	<path class="st1" d="M22.5,104.1c2-0.7,3.3-1.8,3.9-3.4c0.7-1.6,0.6-3.5-0.2-5.7l-1.6-4.4l-12.6,4.4l1.5,4.3c0.8,2.4,2,4,3.6,4.8
		C18.8,104.7,20.6,104.8,22.5,104.1z M18.3,101.2c-0.9-0.5-1.6-1.3-2-2.6l-0.6-1.8l7.6-2.7l0.5,1.6c0.5,1.4,0.5,2.6,0.1,3.5
		c-0.4,0.9-1.3,1.6-2.5,2C20.2,101.7,19.1,101.7,18.3,101.2z"/>
	<polygon class="st1" points="29.1,116.8 31.2,115.4 27.8,110.4 30,108.9 33.8,114.3 36,112.8 30.5,104.9 19.6,112.5 25.1,120.6 
		27.3,119.1 23.4,113.4 25.7,111.9 	"/>
	<path class="st1" d="M39.2,119.8c0.4,0,0.7,0.2,1.1,0.5c0.9,0.8,1.5,1.9,1.8,3.4l2.6-0.6c-0.1-0.9-0.4-1.7-0.9-2.5
		c-0.5-0.8-1-1.5-1.7-2.1c-1-0.9-2.1-1.4-3.2-1.5c-1.1-0.1-2.1,0.3-3,1.3c-0.8,0.9-1.2,1.9-1,2.8c0.1,0.9,0.7,2,1.6,3.3
		c0.6,0.8,0.9,1.4,1,1.8c0.1,0.4,0,0.7-0.3,1c-0.3,0.3-0.6,0.4-1,0.4c-0.4,0-0.8-0.2-1.2-0.6c-0.9-0.8-1.5-2.2-1.7-4.1l-2.8,0.5
		c0.2,2.3,1.1,4.1,2.7,5.5c1.1,1,2.2,1.5,3.4,1.5c1.2,0,2.1-0.4,2.9-1.3c0.8-0.9,1.1-1.8,1-2.7c-0.1-0.9-0.5-1.9-1.3-3
		c-0.7-1.1-1.2-1.8-1.3-2.2c-0.1-0.4,0-0.7,0.2-1C38.6,119.9,38.9,119.8,39.2,119.8z"/>
	
		<rect x="40.5" y="129.2" transform="matrix(0.5071 -0.8619 0.8619 0.5071 -89.3608 105.0508)" class="st1" width="13.3" height="3"/>
	<path class="st1" d="M58,132.4c1-0.5,2-0.6,3.1-0.2c0.6,0.2,1,0.4,1.5,0.8c0.4,0.3,0.8,0.9,1.2,1.5l2.2-1.6
		c-0.9-1.6-2.3-2.8-4.1-3.4c-1.8-0.6-3.6-0.5-5.3,0.3c-1.7,0.8-2.9,2.2-3.5,4.1c-0.6,1.9-0.5,3.6,0.3,5.3c0.9,1.6,2.2,2.8,4.1,3.4
		c2.2,0.7,4.2,0.6,5.9-0.4l1.5-4.5l-2.8-0.9l-1.2,3.5c-0.8,0.2-1.7,0.1-2.6-0.2c-1-0.3-1.7-1-2.2-1.9c-0.5-1-0.5-2-0.1-3.2
		C56.3,133.8,57,132.9,58,132.4z"/>
	<polygon class="st1" points="79.3,141.1 73.1,132.3 70.3,132.2 69.8,145.5 72.8,145.6 73.1,137.3 79.2,145.8 82.1,145.9 
		82.6,132.6 79.6,132.5 	"/>
	<path class="st1" d="M104.3,135l-2.6-0.8c0.1,0.7,0,1.3-0.1,2c-0.5-0.3-1.2-0.7-2.2-1.3c1.4-1.6,1.8-3,1.4-4.2
		c-0.3-0.9-0.9-1.5-1.8-1.8c-0.9-0.3-1.8-0.2-2.9,0.1c-1,0.4-1.8,0.9-2.3,1.7s-0.6,1.7-0.3,2.7c0.2,0.5,0.4,0.9,0.7,1.2
		c0.3,0.3,0.7,0.6,1.3,1c-1.4,1.6-1.9,3.1-1.4,4.4c0.4,1.2,1.2,2,2.3,2.3c1.1,0.4,2.3,0.3,3.6-0.1c1.3-0.5,2.3-1.3,3.1-2.5l2.1,1
		l1.2-2.3l-2.4-1.1C104.3,136.7,104.3,135.9,104.3,135z M96.3,132.6c-0.1-0.3-0.1-0.6,0-0.9c0.1-0.3,0.3-0.4,0.6-0.5
		c0.3-0.1,0.5-0.1,0.8,0c0.3,0.1,0.5,0.3,0.6,0.7c0.1,0.4-0.1,1-0.9,1.8C96.8,133.3,96.4,132.9,96.3,132.6z M99.3,140.1
		c-0.6,0.2-1,0.2-1.5,0.1c-0.4-0.2-0.7-0.4-0.9-0.9c-0.2-0.7,0-1.4,0.7-2.3c0.9,0.5,2,1.1,3.2,1.7
		C100.4,139.4,99.9,139.9,99.3,140.1z"/>
	<path class="st1" d="M118.3,117.8c-1.7-0.1-3.5,0.7-5.3,2.2l-3.6,3.1l8.7,10.1l3.5-3c1.9-1.7,3-3.3,3.1-5.1s-0.4-3.4-1.8-4.9
		C121.6,118.7,120,117.8,118.3,117.8z M120.1,128l-1.4,1.2l-5.3-6.2l1.3-1.1c1.2-1,2.2-1.4,3.2-1.4c1,0.1,1.9,0.6,2.8,1.6
		c0.8,1,1.2,2,1.1,3C121.7,126.2,121.1,127.2,120.1,128z"/>
	<polygon class="st1" points="131.3,116 129,114.5 132.4,109.5 130.3,108.1 127,113 124.7,111.5 128.4,106 126.3,104.5 120.8,112.4 
		131.8,120 137.4,111.9 135.2,110.4 	"/>
	<polygon class="st1" points="131.3,91.6 138.3,97.4 129.2,98 128.2,101.1 142.5,100.2 143.3,97.8 132.3,88.5 	"/>
	<path class="st1" d="M16.4,78.7c-0.8,0.2-1.3,1-1.1,1.7c0.2,0.8,1,1.3,1.7,1.1c0.8-0.2,1.3-1,1.1-1.7C18,79,17.2,78.5,16.4,78.7z"
		/>
	<path class="st1" d="M140.1,81.8c0.8-0.2,1.3-1,1.1-1.7c-0.2-0.8-1-1.3-1.7-1.1c-0.8,0.2-1.3,1-1.1,1.7
		C138.6,81.4,139.3,81.9,140.1,81.8z"/>
	<g>
		<path class="st1" d="M71.7,78.8l0.9,0.2c1.9,0.5,3.3,2,3.8,3.8l0.2,0.9c0.1,0.5,0.6,0.9,1.1,0.9c0,0,0,0,0,0c0.5,0,1-0.4,1.1-0.9
			l0.2-0.9c0.5-1.9,2-3.3,3.8-3.8l0.9-0.2c0.5-0.1,0.9-0.6,0.9-1.1s-0.4-1-0.9-1.1l-0.9-0.2c-1.9-0.5-3.3-2-3.8-3.8l-0.2-0.9
			c-0.1-0.5-0.6-0.9-1.1-0.9c0,0,0,0,0,0c-0.5,0-1,0.4-1.1,0.9l-0.2,0.9c-0.5,1.8-2,3.3-3.8,3.8l-0.9,0.2c-0.5,0.1-0.9,0.6-0.9,1.1
			S71.2,78.7,71.7,78.8z M77.7,75.2c0.6,1,1.5,1.9,2.5,2.5c-1,0.6-1.9,1.5-2.5,2.5c-0.6-1-1.5-1.9-2.5-2.5
			C76.2,77.1,77.1,76.2,77.7,75.2z"/>
		<path class="st1" d="M125,78.7c0.6,0,1-0.4,1-1s-0.4-1-1-1h-9.5c-0.4-0.6-1.6-2.4-3.5-4.8l12.3-2.4c0.5-0.1,0.9-0.6,0.8-1.2
			c-0.1-0.5-0.6-0.9-1.2-0.8l-13.3,2.7c-1-1.1-2.1-2.4-3.2-3.6l14.5-6c0.5-0.2,0.8-0.8,0.5-1.3c-0.2-0.5-0.8-0.8-1.3-0.5L105.8,65
			c-0.4-0.4-0.7-0.7-1.1-1.1c-0.6-0.6-1.3-1.2-1.9-1.8l14.8-9.9c0.5-0.3,0.6-0.9,0.3-1.4s-0.9-0.6-1.4-0.3l-15.2,10.2
			c-1-0.8-1.9-1.6-2.9-2.3L111.9,45c0.4-0.4,0.4-1,0-1.4s-1-0.4-1.4,0L96.7,57.4c-1-0.7-1.9-1.3-2.9-1.8L104.8,39
			c0.3-0.5,0.2-1.1-0.3-1.4c-0.5-0.3-1.1-0.2-1.4,0.3L92,54.6c-1-0.5-2-1-3-1.4l7.8-18.8c0.2-0.5,0-1.1-0.5-1.3
			c-0.5-0.2-1.1,0-1.3,0.5l-7.8,18.8c-1.1-0.4-2.1-0.7-3.2-0.9l4-20c0.1-0.5-0.2-1.1-0.8-1.2c-0.5-0.1-1.1,0.2-1.2,0.8l-4,20
			c-1.1-0.2-2.2-0.3-3.3-0.3V30.5c0-0.6-0.4-1-1-1s-1,0.4-1,1v20.4c-1.1,0-2.2,0.2-3.3,0.3l-4-20c-0.1-0.5-0.6-0.9-1.2-0.8
			c-0.5,0.1-0.9,0.6-0.8,1.2l4,20c-1,0.2-2.1,0.6-3.1,0.9l-7.8-18.8c-0.2-0.5-0.8-0.8-1.3-0.5c-0.5,0.2-0.8,0.8-0.5,1.3l7.8,18.8
			c-1,0.4-2,0.9-3,1.4L52.3,37.9c-0.3-0.5-0.9-0.6-1.4-0.3c-0.5,0.3-0.6,0.9-0.3,1.4l11.1,16.6c-1,0.6-1.9,1.2-2.9,1.8L45,43.6
			c-0.4-0.4-1-0.4-1.4,0s-0.4,1,0,1.4l13.6,13.6c-1,0.7-1.9,1.5-2.9,2.3L39,50.6c-0.5-0.3-1.1-0.2-1.4,0.3c-0.3,0.5-0.2,1.1,0.3,1.4
			l14.8,9.9c-0.6,0.6-1.2,1.1-1.9,1.7c-0.4,0.4-0.8,0.7-1.1,1.1l-15.3-6.3c-0.5-0.2-1.1,0-1.3,0.5c-0.2,0.5,0,1.1,0.5,1.3l14.5,6
			c-1.2,1.3-2.3,2.5-3.2,3.6l-13.4-2.7c-0.5-0.1-1.1,0.2-1.2,0.8c-0.1,0.5,0.2,1.1,0.8,1.2l12.4,2.5c-1.9,2.4-3.2,4.2-3.5,4.8h-9.6
			c-0.6,0-1,0.4-1,1s0.4,1,1,1H40c0.4,0.6,1.6,2.4,3.5,4.8L31.2,86c-0.5,0.1-0.9,0.6-0.8,1.2c0.1,0.5,0.5,0.8,1,0.8
			c0.1,0,0.1,0,0.2,0L45,85.3c1,1.1,2,2.4,3.2,3.6l-14.5,6c-0.5,0.2-0.8,0.8-0.5,1.3c0.2,0.4,0.5,0.6,0.9,0.6c0.1,0,0.3,0,0.4-0.1
			l15.3-6.3c0.4,0.4,0.7,0.7,1.1,1.1c0.6,0.6,1.2,1.2,1.9,1.7l-14.8,9.9c-0.5,0.3-0.6,0.9-0.3,1.4c0.2,0.3,0.5,0.4,0.8,0.4
			c0.2,0,0.4-0.1,0.6-0.2l15.3-10.2c1,0.8,1.9,1.6,2.9,2.3l-13.6,13.6c-0.4,0.4-0.4,1,0,1.4c0.2,0.2,0.5,0.3,0.7,0.3
			s0.5-0.1,0.7-0.3L58.8,98c1,0.7,1.9,1.3,2.9,1.8l-11.1,16.6c-0.3,0.5-0.2,1.1,0.3,1.4c0.2,0.1,0.4,0.2,0.6,0.2
			c0.3,0,0.6-0.2,0.8-0.4l11.2-16.8c1,0.5,2,1,3,1.4L58.7,121c-0.2,0.5,0,1.1,0.5,1.3c0.1,0.1,0.3,0.1,0.4,0.1
			c0.4,0,0.8-0.2,0.9-0.6l7.8-18.8c1.1,0.4,2.1,0.7,3.1,0.9l-4,20c-0.1,0.5,0.2,1.1,0.8,1.2c0.1,0,0.1,0,0.2,0c0.5,0,0.9-0.3,1-0.8
			l4-20c1.1,0.2,2.2,0.3,3.3,0.3V125c0,0.6,0.4,1,1,1s1-0.4,1-1v-20.4c1.1,0,2.2-0.1,3.3-0.3l4,20c0.1,0.5,0.5,0.8,1,0.8
			c0.1,0,0.1,0,0.2,0c0.5-0.1,0.9-0.6,0.8-1.2l-4-20c1-0.2,2.1-0.6,3.2-0.9l7.8,18.8c0.2,0.4,0.5,0.6,0.9,0.6c0.1,0,0.3,0,0.4-0.1
			c0.5-0.2,0.8-0.8,0.5-1.3L89,102.3c1-0.4,2-0.9,3-1.4l11.2,16.7c0.2,0.3,0.5,0.4,0.8,0.4c0.2,0,0.4-0.1,0.6-0.2
			c0.5-0.3,0.6-0.9,0.3-1.4L93.7,99.9c1-0.6,1.9-1.2,2.9-1.8l13.8,13.8c0.2,0.2,0.5,0.3,0.7,0.3s0.5-0.1,0.7-0.3
			c0.4-0.4,0.4-1,0-1.4L98.3,96.9c1-0.7,1.9-1.5,2.9-2.3l15.2,10.2c0.2,0.1,0.4,0.2,0.6,0.2c0.3,0,0.6-0.2,0.8-0.4
			c0.3-0.5,0.2-1.1-0.3-1.4l-14.8-9.9c0.6-0.6,1.3-1.2,1.9-1.8c0.4-0.4,0.7-0.7,1.1-1.1l15.2,6.3c0.1,0.1,0.3,0.1,0.4,0.1
			c0.4,0,0.8-0.2,0.9-0.6c0.2-0.5,0-1.1-0.5-1.3l-14.5-6c1.2-1.3,2.3-2.5,3.2-3.6l13.3,2.7c0.1,0,0.1,0,0.2,0c0.5,0,0.9-0.3,1-0.8
			c0.1-0.5-0.2-1.1-0.8-1.2L112,83.5c1.9-2.4,3.2-4.2,3.5-4.8H125z M77.7,53.8c11.5,0,21.9,8.8,28.4,15.9c-6.9-4.3-17-8.9-28.4-8.9
			c-11.4,0-21.5,4.6-28.4,8.9C55.8,62.6,66.2,53.8,77.7,53.8z M89.5,77.7c0,6.5-5.3,11.8-11.8,11.8S66,84.2,66,77.7S71.2,66,77.7,66
			S89.5,71.2,89.5,77.7z M77.7,101.4c-8,0-15.4-4.3-21.4-9.2c7.2,4.3,14.5,6.6,21.4,6.6c6.9,0,14.2-2.3,21.5-6.6
			C93.2,97.2,85.7,101.4,77.7,101.4z M111.4,78.7c-1,1-2.4,2.4-4,3.9c-0.6,0.5-1.3,1.1-1.9,1.7c-1,0.8-2.1,1.7-3.2,2.5
			c-0.6,0.5-1.3,0.9-1.9,1.4c-0.8,0.6-1.7,1.1-2.6,1.7c-0.6,0.4-1.3,0.7-1.9,1.1C90.4,93.8,84.2,96,77.7,96
			c-6.5,0-12.7-2.2-17.9-5.1c-0.7-0.4-1.3-0.7-1.9-1.1c-0.9-0.5-1.8-1.1-2.6-1.7c-0.7-0.4-1.3-0.9-1.9-1.4c-1.2-0.8-2.2-1.7-3.2-2.5
			c-0.7-0.6-1.3-1.1-1.9-1.7c-1.7-1.5-3.1-2.8-4-3.9c-0.3-0.3-0.6-0.6-0.8-0.9c0.4-0.3,0.8-0.7,1.4-1.1c1.3-1,2.9-2.2,5-3.6
			c0.8-0.5,1.6-1,2.5-1.5c4.7-2.8,10.9-5.7,17.7-7c-4.4,2.7-7.4,7.5-7.4,13.1c0,8.4,6.9,15.3,15.3,15.3S93,86.2,93,77.7
			c0-5.6-3-10.4-7.4-13.1c6.8,1.3,13,4.2,17.7,7c0.9,0.5,1.7,1,2.5,1.5c2.1,1.3,3.7,2.6,5,3.6c0.6,0.4,1,0.8,1.4,1.1
			C112,78.1,111.7,78.4,111.4,78.7z"/>
	</g>
</g>
</svg>
